HIERARCHY
ROOT Hips
{
	OFFSET 56.512699 1.435904 96.823196
	CHANNELS 6 Xposition Yposition Zposition Xrotation Yrotation Zrotation
	JOINT spine
	{
		OFFSET 0.000000 -0.458068 7.965683
		CHANNELS 3 Xrotation Yrotation Zrotation
		JOINT spine1
		{
			OFFSET 0.000000 -0.000002 10.243103
			CHANNELS 3 Xrotation Yrotation Zrotation
			JOINT spine2
			{
				OFFSET 0.000000 -0.000002 9.814751
				CHANNELS 3 Xrotation Yrotation Zrotation
				JOINT Neck
				{
					OFFSET 0.000000 -1.201384 25.198601
					CHANNELS 3 Xrotation Yrotation Zrotation
					JOINT Head
					{
						OFFSET 0.000000 -0.000001 7.613144
						CHANNELS 3 Xrotation Yrotation Zrotation
						End Site
						{
							OFFSET 0.000000 6.077327 18.428101
						}
					}
				}
				JOINT RightShoulder
				{
					OFFSET -4.132702 0.575449 10.599205
					CHANNELS 3 Xrotation Yrotation Zrotation
					JOINT RightArm
					{
						OFFSET 0.000000 -0.000002 13.901794
						CHANNELS 3 Xrotation Yrotation Zrotation
						JOINT RightArmRoll
						{
							OFFSET 0.000000 -0.000001 7.017883
							CHANNELS 3 Xrotation Yrotation Zrotation
							JOINT RightForeArm
							{
								OFFSET 0.000000 -0.000003 20.440598
								CHANNELS 3 Xrotation Yrotation Zrotation
								JOINT RightForeArmRoll
								{
									OFFSET 0.000000 -0.000001 7.875153
									CHANNELS 3 Xrotation Yrotation Zrotation
									JOINT RightHand
									{
										OFFSET 0.000000 -0.000003 15.803696
										CHANNELS 3 Xrotation Yrotation Zrotation
										End Site
										{
											OFFSET 0.000000 0.000000 0.100006
										}
									}
								}
							}
						}
					}
				}
				JOINT LeftShoulder
				{
					OFFSET 4.132702 0.575449 10.599205
					CHANNELS 3 Xrotation Yrotation Zrotation
					JOINT LeftArm
					{
						OFFSET 0.000000 -0.000002 13.901794
						CHANNELS 3 Xrotation Yrotation Zrotation
						JOINT LeftArmRoll
						{
							OFFSET 0.000000 -0.000001 7.017883
							CHANNELS 3 Xrotation Yrotation Zrotation
							JOINT LeftForeArm
							{
								OFFSET 0.000000 -0.000003 20.440598
								CHANNELS 3 Xrotation Yrotation Zrotation
								JOINT LeftForeArmRoll
								{
									OFFSET 0.000000 -0.000001 7.875153
									CHANNELS 3 Xrotation Yrotation Zrotation
									JOINT LeftHand
									{
										OFFSET 0.000000 -0.000003 15.803696
										CHANNELS 3 Xrotation Yrotation Zrotation
										End Site
										{
											OFFSET 0.000000 0.000000 0.100006
										}
									}
								}
							}
						}
					}
				}
			}
		}
	}
	JOINT RightUpLeg
	{
		OFFSET -7.060482 1.086100 -1.294701
		CHANNELS 3 Xrotation Yrotation Zrotation
		JOINT RightUpLegRoll
		{
			OFFSET 0.000000 -0.000003 18.530800
			CHANNELS 3 Xrotation Yrotation Zrotation
			JOINT RightLeg
			{
				OFFSET 0.000000 0.000004 -22.947601
				CHANNELS 3 Xrotation Yrotation Zrotation
				JOINT RightLegRoll
				{
					OFFSET 0.000000 -0.000004 23.022598
					CHANNELS 3 Xrotation Yrotation Zrotation
					JOINT RightFoot
					{
						OFFSET 0.000000 -0.000003 19.162506
						CHANNELS 3 Xrotation Yrotation Zrotation
						JOINT RightToeBase
						{
							OFFSET 0.000000 -0.000003 16.018799
							CHANNELS 3 Xrotation Yrotation Zrotation
							End Site
							{
								OFFSET 0.006790 0.894206 7.757812
							}
						}
					}
				}
			}
		}
	}
	JOINT LeftUpLeg
	{
		OFFSET 7.060482 1.086100 -1.294701
		CHANNELS 3 Xrotation Yrotation Zrotation
		JOINT LeftUpLegRoll
		{
			OFFSET 0.000000 -0.000003 18.530899
			CHANNELS 3 Xrotation Yrotation Zrotation
			JOINT LeftLeg
			{
				OFFSET 0.000000 -0.000004 22.947502
				CHANNELS 3 Xrotation Yrotation Zrotation
				JOINT LeftLegRoll
				{
					OFFSET 0.000000 -0.000004 23.235504
					CHANNELS 3 Xrotation Yrotation Zrotation
					JOINT LeftFoot
					{
						OFFSET 0.000000 -0.000003 18.949600
						CHANNELS 3 Xrotation Yrotation Zrotation
						JOINT LeftToeBase
						{
							OFFSET 0.000000 -0.000003 16.018799
							CHANNELS 3 Xrotation Yrotation Zrotation
							End Site
							{
								OFFSET -0.030430 0.894205 7.757828
							}
						}
					}
				}
			}
		}
	}
}
MOTION
Frames: 8
Frame Time: 0.041667
56.262794 0.839840 96.862190 -5.234130 -0.371429 3.839774 -0.473668 0.027606 -0.191681 3.055922 0.071965 -0.383331 4.700984 0.067369 -0.384165 0.660618 5.200185 -0.114202 14.519637 -6.206010 0.520962 -10.569484 -69.237792 -13.022231 -53.259121 -99.210957 -89.675719 0.000003 -0.000002 0.000000 99.075541 3.523549 -13.627741 0.000001 -0.000006 -2.999992 -5.000314 -7.998730 0.000188 -9.752339 60.298795 11.595569 -35.326230 105.219720 74.775839 -0.000001 -0.000000 -0.000002 100.941679 -1.520137 13.706599 -0.000006 -0.000011 2.999987 -5.000191 7.998737 -0.000148 2.371647 -178.325434 2.824785 -179.999991 0.000005 -1.162999 172.140547 -1.895038 -0.607541 -0.000001 -0.000002 0.132066 69.891714 6.892816 2.058637 25.456952 -7.355615 0.000011 3.723175 176.969409 -0.487848 -0.000005 -0.000004 -1.178730 -6.052118 1.672263 0.243510 -0.000002 0.000002 -0.065549 68.922817 -6.911087 -2.092618 25.456952 7.355612 -0.000001 
56.264194 0.836212 96.810692 -5.234959 -0.372808 3.829673 -0.472569 0.027139 -0.191960 3.058322 0.070710 -0.383813 4.703394 0.066109 -0.384628 0.697558 5.226784 -0.119573 14.421000 -6.219542 0.510774 -10.545709 -69.235100 -12.995552 -52.643850 -99.031118 -88.794700 0.000002 -0.000003 0.000001 99.037606 3.511690 -13.583616 0.000000 -0.000005 -2.999985 -5.000310 -7.998731 0.000184 -9.777253 60.289595 11.624249 -34.616266 105.089625 73.772764 0.000000 0.000001 0.000001 100.935648 -1.528001 13.679261 -0.000009 -0.000011 2.999992 -5.000189 7.998734 -0.000150 2.372125 -178.320434 2.827586 -179.999991 0.000005 -1.163996 172.136326 -1.894030 -0.608541 -0.000001 -0.000002 0.132175 69.892247 6.892833 2.058306 25.456955 -7.355615 0.000011 3.729549 176.974409 -0.486656 -0.000005 -0.000004 -1.178850 -6.048779 1.673337 0.243272 -0.000004 0.000002 -0.065478 68.920072 -6.911072 -2.092886 25.456952 7.355613 0.000000 
56.258495 0.833934 96.816895 -5.235490 -0.374194 3.819171 -0.471484 0.026887 -0.192356 3.060612 0.069659 -0.384489 4.705684 0.065050 -0.385288 0.736037 5.254748 -0.125707 14.320210 -6.235328 0.500079 -10.522262 -69.234923 -12.969375 -52.030615 -98.857686 -87.910238 0.000002 -0.000002 0.000002 98.998353 3.498204 -13.538349 0.000001 -0.000007 -2.999991 -5.000310 -7.998737 0.000186 -9.803696 60.278755 11.654624 -33.894739 104.966579 72.749410 -0.000001 -0.000000 0.000001 100.929842 -1.534932 13.649854 -0.000008 -0.000010 2.999990 -5.000193 7.998735 -0.000147 2.371711 -178.315434 2.829970 -179.999991 0.000005 -1.163996 172.131149 -1.893019 -0.608577 -0.000001 -0.000002 0.132298 69.893203 6.892826 2.058046 25.456955 -7.355615 0.000011 3.737057 176.978439 -0.485850 -0.000005 -0.000004 -1.178970 -6.042922 1.674757 0.242983 -0.000003 0.000002 -0.065387 68.915748 -6.911068 -2.093256 25.456952 7.355612 -0.000001 
56.268196 0.824597 96.813995 -5.235794 -0.375601 3.808331 -0.470417 0.026815 -0.192856 3.062802 0.068767 -0.385336 4.707874 0.064150 -0.386121 0.775807 5.283809 -0.132408 14.217746 -6.252848 0.488999 -10.499071 -69.236548 -12.943575 -51.417855 -98.690797 -87.021193 0.000003 -0.000001 0.000000 98.957755 3.483481 -13.488949 0.000001 -0.000007 -2.999991 -5.000311 -7.998737 0.000185 -9.831411 60.266311 11.686402 -33.163652 104.850842 71.708469 0.000000 -0.000002 -0.000000 100.924159 -1.540903 13.619355 -0.000007 -0.000015 2.999991 -5.000189 7.998737 -0.000146 2.370536 -178.311446 2.831982 -179.999991 0.000005 -1.163996 172.125138 -1.892004 -0.609649 -0.000001 -0.000002 0.132434 69.894384 6.892863 2.057781 25.456952 -7.355614 0.000011 3.745514 176.982441 -0.485279 -0.000005 -0.000004 -1.179090 -6.034913 1.676443 0.242648 -0.000003 0.000002 -0.065277 68.910141 -6.911030 -2.093698 25.456955 7.355610 0.000000 
56.252098 0.822516 96.802002 -5.235913 -0.377043 3.797228 -0.469362 0.026882 -0.193448 3.064912 0.067991 -0.386336 4.709973 0.063362 -0.387106 0.816620 5.313714 -0.139480 14.114502 -6.271577 0.477676 -10.476227 -69.239779 -12.918228 -50.804293 -98.530588 -86.126459 0.000003 -0.000002 0.000000 98.916220 3.467324 -13.439417 -0.000000 -0.000005 -2.999990 -5.000311 -7.998732 0.000190 -9.860250 60.252664 11.719426 -32.425217 104.742686 70.652515 -0.000000 -0.000001 0.000000 100.918087 -1.546055 13.584766 -0.000009 -0.000014 2.999992 -5.000194 7.998730 -0.000147 2.368719 -178.306446 2.833754 -179.999991 0.000005 -1.163996 172.118404 -1.889984 -0.610593 -0.000001 -0.000002 0.132582 69.895976 6.892875 2.057384 25.456957 -7.355615 0.000011 3.754783 176.986471 -0.484861 -0.000005 -0.000004 -1.179211 -6.025124 1.678323 0.242275 -0.000003 0.000002 -0.065150 68.903399 -6.911063 -2.094027 25.456953 7.355611 0.000000 
56.262794 0.821181 96.807800 -5.235935 -0.378533 3.785923 -0.468318 0.027052 -0.194118 3.066942 0.067286 -0.387465 4.712002 0.062646 -0.388221 0.858227 5.344205 -0.146729 14.011081 -6.291007 0.466252 -10.453692 -69.243891 -12.893301 -50.188746 -98.377161 -85.225297 0.000003 -0.000004 0.000006 98.873771 3.449922 -13.386772 0.000002 -0.000006 -2.999992 -5.000311 -7.998735 0.000187 -9.889982 60.237945 11.753448 -31.683755 104.641531 69.586821 -0.000000 0.000001 0.000001 100.911462 -1.550144 13.548072 -0.000007 -0.000011 2.999989 -5.000186 7.998737 -0.000148 2.366375 -178.302443 2.835270 -179.999991 0.000005 -1.163996 172.111082 -1.887975 -0.610561 -0.000001 -0.000002 0.132740 69.897786 6.892895 2.056975 25.456957 -7.355613 0.000011 3.764704 176.990501 -0.484517 -0.000005 -0.000004 -1.179330 -6.013926 1.680337 0.241874 -0.000003 0.000002 -0.065010 68.895906 -6.911052 -2.094392 25.456952 7.355612 0.000001 
56.277397 0.813541 96.797195 -5.235893 -0.380087 3.774480 -0.467286 0.027287 -0.194855 3.068912 0.066610 -0.388702 4.713984 0.061955 -0.389445 0.900380 5.375020 -0.153955 13.908055 -6.310609 0.454865 -10.431605 -69.248583 -12.868880 -49.569364 -98.230729 -84.315987 0.000003 -0.000003 0.000004 98.830576 3.431370 -13.332023 -0.000000 -0.000006 -2.999987 -5.000311 -7.998730 0.000189 -9.920481 60.222543 11.788334 -30.939944 104.548449 68.512330 0.000000 -0.000000 0.000001 100.903860 -1.553117 13.510235 -0.000009 -0.000013 2.999993 -5.000189 7.998731 -0.000147 2.363639 -178.297444 2.836696 -179.999991 0.000005 -1.163996 172.103254 -1.885964 -0.611543 -0.000001 -0.000002 0.132905 69.899801 6.892888 2.056748 25.456953 -7.355615 0.000011 3.775100 176.995514 -0.484095 -0.000005 -0.000004 -1.179449 -6.001666 1.682403 0.241452 -0.000003 0.000002 -0.064857 68.887765 -6.911004 -2.094892 25.456950 7.355612 -0.000000 
56.261497 0.813558 96.820793 -5.235856 -0.381717 3.762971 -0.466265 0.027550 -0.195644 3.070842 0.065917 -0.390024 4.715902 0.061248 -0.390752 0.942829 5.405913 -0.160959 13.806217 -6.329875 0.443673 -10.409880 -69.253153 -12.844867 -48.945993 -98.091325 -83.398802 0.000002 -0.000002 0.000001 98.786986 3.411629 -13.276196 -0.000000 -0.000005 -2.999989 -5.000314 -7.998730 0.000186 -9.951571 60.206704 11.823889 -30.198510 104.462812 67.434437 0.000000 -0.000001 0.000001 100.895090 -1.555165 13.468320 -0.000008 -0.000012 2.999988 -5.000189 7.998733 -0.000148 2.360610 -178.293441 2.838000 -179.999991 0.000005 -1.163996 172.095072 -1.883937 -0.612533 -0.000001 -0.000002 0.133075 69.901932 6.892918 2.056320 25.456955 -7.355614 0.000011 3.785839 176.999558 -0.483649 -0.000005 -0.000004 -1.179571 -5.988737 1.684452 0.241019 -0.000002 0.000002 -0.064695 68.879213 -6.910999 -2.095326 25.456952 7.355612 0.000000 
